<svg xmlns="http://www.w3.org/2000/svg" width="24.001" height="24.004" viewBox="0 0 24.001 24.004">
  <path id="layer-plus" d="M.485,8.088l9.862,5.917a3.206,3.206,0,0,0,3.306,0l9.861-5.917a1,1,0,0,0,0-1.714L13.654.456a3.2,3.2,0,0,0-3.307,0L.485,6.373a1,1,0,0,0,0,1.714ZM11.376,2.171h0a1.215,1.215,0,0,1,1.248,0l8.432,5.06-8.432,5.06a1.217,1.217,0,0,1-1.249,0L2.944,7.23ZM24,20a1,1,0,0,1-1,1H21v2a1,1,0,0,1-2,0V21H17a1,1,0,0,1,0-2h2V17a1,1,0,0,1,2,0v2h2A1,1,0,0,1,24,20ZM12.857,23.286a1,1,0,0,1-1.372.342l-11-6.6a1,1,0,0,1,1.029-1.715l11,6.6A1,1,0,0,1,12.857,23.286Zm11-12.2a1,1,0,0,1-.343,1.372l-11,6.6a1,1,0,0,1-1.03,0l-11-6.6a1,1,0,0,1,1.029-1.715L12,17.038l10.485-6.291a1,1,0,0,1,1.372.343Z" transform="translate(0.001 0.004)" fill="#fff"/>
</svg>
